# xmcd
#
# Track frame offsets: 
#        150
#        17636
#        33884
#        46298
#        63488
#        80373
#        93898
#        111298
#        125205
#        143310
#        165624
#        187003
#
# Disc length: 2658 seconds
#
# Revision: 0
# Processed by: cddbd v1.5.2PL0 Copyright (c) Steve Scherf et al.
# Submitted via: ExactAudioCopy v0.95b4
#
DISCID=970a600c
DTITLE=Beccy Cole - Wild At Heart
DYEAR=2001
DGENRE=Country
TTITLE0=This Heart
TTITLE1=Too Strong To Break
TTITLE2=Wild At Heart
TTITLE3=Never Sees Anything Through
TTITLE4=Keep On Rockin'
TTITLE5=Ordinary Heart
TTITLE6=Storm In A D Cup
TTITLE7=Friends For A Lifetime
TTITLE8=Mother Knows Best
TTITLE9=Emily
TTITLE10=Lazy Bones
TTITLE11=Do I Ever Cross Your Mind (Live)
EXTD=
EXTT0=
EXTT1=
EXTT2=
EXTT3=
EXTT4=
EXTT5=
EXTT6=
EXTT7=
EXTT8=
EXTT9=
EXTT10=
EXTT11=
PLAYORDER=
